<svg xmlns="http://www.w3.org/2000/svg" width="440" height="300" viewBox="0 0 440 300" fill="none">
  <ellipse cx="220" cy="266" rx="164" ry="26" fill="#D4B08A" stroke="#7B4D37" stroke-width="6"/>
  <ellipse cx="220" cy="186" rx="148" ry="34" fill="#F3E2D0" stroke="#7B4D37" stroke-width="6"/>
  <path d="M84 184H356V246C356 264 294 280 220 280C146 280 84 264 84 246V184Z" fill="#8F6247" stroke="#7B4D37" stroke-width="6"/>
  <path d="M112 204C126 228 152 226 166 204C178 228 204 226 218 204C232 228 258 226 272 204C284 228 310 226 326 204" stroke="#E5C3A5" stroke-width="14" stroke-linecap="round"/>
  <path d="M142 160C166 126 274 126 298 160" stroke="#5E3B2D" stroke-width="8" stroke-linecap="round"/>
  <circle cx="160" cy="154" r="11" fill="#FFF1DE" stroke="#7B4D37" stroke-width="4"/>
  <circle cx="220" cy="144" r="11" fill="#FFD468" stroke="#7B4D37" stroke-width="4"/>
  <circle cx="282" cy="154" r="11" fill="#FFF1DE" stroke="#7B4D37" stroke-width="4"/>
</svg>