<svg xmlns="http://www.w3.org/2000/svg" width="640" height="520" viewBox="0 0 640 520" fill="none">
  <rect width="640" height="520" rx="36" fill="#FFF7EA"/>
  <path d="M88 122L126 70L166 126" stroke="#7B4D37" stroke-width="8" stroke-linejoin="round"/>
  <path d="M462 124L506 72L548 126" stroke="#7B4D37" stroke-width="8" stroke-linejoin="round"/>
  <path d="M66 126C160 194 232 188 322 126C424 196 500 194 574 124" stroke="#7B4D37" stroke-width="8" stroke-linecap="round" opacity="0.55"/>
  <g opacity="0.96">
    <circle cx="90" cy="86" r="26" fill="#FFB7D0" stroke="#7B4D37" stroke-width="4"/>
    <circle cx="122" cy="70" r="22" fill="#FFD66E" stroke="#7B4D37" stroke-width="4"/>
    <circle cx="148" cy="96" r="21" fill="#9EDAF6" stroke="#7B4D37" stroke-width="4"/>
    <circle cx="492" cy="84" r="26" fill="#FFB7D0" stroke="#7B4D37" stroke-width="4"/>
    <circle cx="528" cy="68" r="22" fill="#FFD66E" stroke="#7B4D37" stroke-width="4"/>
    <circle cx="556" cy="96" r="21" fill="#9EDAF6" stroke="#7B4D37" stroke-width="4"/>
  </g>
  <ellipse cx="322" cy="320" rx="178" ry="114" fill="#FFFDF5" stroke="#7B4D37" stroke-width="7"/>
  <path d="M190 338C272 360 372 360 454 338" stroke="#7B4D37" stroke-width="7" stroke-linecap="round"/>
  <g>
    <circle cx="176" cy="296" r="46" fill="#B97B5D" stroke="#7B4D37" stroke-width="6"/>
    <circle cx="164" cy="258" r="18" fill="#B97B5D" stroke="#7B4D37" stroke-width="6"/>
    <circle cx="188" cy="258" r="18" fill="#B97B5D" stroke="#7B4D37" stroke-width="6"/>
    <ellipse cx="176" cy="308" rx="24" ry="18" fill="#FFF1DE" stroke="#7B4D37" stroke-width="5"/>
  </g>
  <g>
    <circle cx="472" cy="296" r="46" fill="#F5D06D" stroke="#7B4D37" stroke-width="6"/>
    <circle cx="460" cy="258" r="18" fill="#F5D06D" stroke="#7B4D37" stroke-width="6"/>
    <circle cx="484" cy="258" r="18" fill="#F5D06D" stroke="#7B4D37" stroke-width="6"/>
    <ellipse cx="472" cy="308" rx="24" ry="18" fill="#FFF1DE" stroke="#7B4D37" stroke-width="5"/>
  </g>
  <g>
    <circle cx="322" cy="252" r="54" fill="#FFFDFB" stroke="#7B4D37" stroke-width="6"/>
    <circle cx="292" cy="220" r="18" fill="#FFFDFB" stroke="#7B4D37" stroke-width="6"/>
    <circle cx="352" cy="220" r="18" fill="#FFFDFB" stroke="#7B4D37" stroke-width="6"/>
    <path d="M308 236L320 228L334 236" fill="#FFD870" stroke="#7B4D37" stroke-width="5" stroke-linejoin="round"/>
    <ellipse cx="322" cy="262" rx="14" ry="10" fill="#FFD4E2" stroke="#7B4D37" stroke-width="4"/>
    <path d="M284 198C308 176 338 176 362 198" stroke="#7B4D37" stroke-width="5" stroke-linecap="round"/>
    <circle cx="298" cy="188" r="18" fill="#FF9EBF" stroke="#7B4D37" stroke-width="5"/>
    <circle cx="344" cy="188" r="18" fill="#FF9EBF" stroke="#7B4D37" stroke-width="5"/>
    <circle cx="322" cy="186" r="12" fill="#FFB3CA" stroke="#7B4D37" stroke-width="5"/>
  </g>
  <rect x="226" y="286" width="192" height="88" rx="26" fill="#FFD9E6" stroke="#7B4D37" stroke-width="6"/>
  <path d="M248 320H396" stroke="#7B4D37" stroke-width="6" stroke-linecap="round"/>
  <path d="M322 286V374" stroke="#7B4D37" stroke-width="6" stroke-linecap="round"/>
  <g>
    <rect x="286" y="238" width="72" height="58" rx="18" fill="#FFF2C4" stroke="#7B4D37" stroke-width="6"/>
    <ellipse cx="322" cy="236" rx="52" ry="18" fill="#FFF6DA" stroke="#7B4D37" stroke-width="6"/>
    <path d="M300 226C304 208 318 198 322 186C326 198 340 208 344 226" stroke="#FF9EBF" stroke-width="7" stroke-linecap="round"/>
  </g>
</svg>