<svg xmlns="http://www.w3.org/2000/svg" width="340" height="380" viewBox="0 0 340 380" fill="none">
  <path d="M122 58C132 24 166 10 188 52" fill="#FFFDFB" stroke="#7B4D37" stroke-width="8" stroke-linejoin="round"/>
  <path d="M218 58C208 24 174 10 152 52" fill="#FFFDFB" stroke="#7B4D37" stroke-width="8" stroke-linejoin="round"/>
  <ellipse cx="170" cy="146" rx="102" ry="92" fill="#FFFDFB" stroke="#7B4D37" stroke-width="8"/>
  <circle cx="128" cy="120" r="20" fill="#FFFDFB" stroke="#7B4D37" stroke-width="8"/>
  <circle cx="212" cy="120" r="20" fill="#FFFDFB" stroke="#7B4D37" stroke-width="8"/>
  <circle cx="136" cy="150" r="6" fill="#7B4D37"/>
  <circle cx="204" cy="150" r="6" fill="#7B4D37"/>
  <ellipse cx="170" cy="170" rx="18" ry="12" fill="#FFD86E" stroke="#7B4D37" stroke-width="5"/>
  <path d="M98 164H134" stroke="#7B4D37" stroke-width="5" stroke-linecap="round"/>
  <path d="M208 164H244" stroke="#7B4D37" stroke-width="5" stroke-linecap="round"/>
  <path d="M96 180H132" stroke="#7B4D37" stroke-width="5" stroke-linecap="round"/>
  <path d="M210 180H246" stroke="#7B4D37" stroke-width="5" stroke-linecap="round"/>
  <circle cx="124" cy="94" r="26" fill="#FF9EBF" stroke="#7B4D37" stroke-width="6"/>
  <circle cx="184" cy="92" r="26" fill="#FF9EBF" stroke="#7B4D37" stroke-width="6"/>
  <circle cx="154" cy="92" r="16" fill="#FFB7D0" stroke="#7B4D37" stroke-width="6"/>
  <path d="M128 238C122 206 126 176 142 174H198C214 176 218 206 212 238L226 336H114L128 238Z" fill="#FFB7D0" stroke="#7B4D37" stroke-width="8" stroke-linejoin="round"/>
  <path d="M126 338C144 352 196 352 214 338" stroke="#7B4D37" stroke-width="8" stroke-linecap="round"/>
  <path d="M138 266C154 282 186 282 202 266" stroke="#7B4D37" stroke-width="6" stroke-linecap="round"/>
  <path d="M110 236L90 320" stroke="#7B4D37" stroke-width="8" stroke-linecap="round"/>
  <path d="M230 236L250 320" stroke="#7B4D37" stroke-width="8" stroke-linecap="round"/>
</svg>